PathFileType	4	(X/Y/Z)	s10c0202.trc
DataRate	CameraRate	NumFrames	NumMarkers	Units	OrigDataRate	OrigDataStartFrame	OrigNumFrames
200	200	4	50	mm	200	250	2000
Frame#	Time	racr			lacr			c7			jug			rlel			rdr			llel			ldr			s2			lic			ric			lasi			rasi			rpsi			lpsi			rgt			lgt			rth1			rth2			rth3			rth4			rlfc			rmfc			rsh1			rsh2			rsh3			rsh4			rlmal			rmmal			rcal			rtoe			rmt5			lth1			lth2			lth4			lth3			llfc			lmfc			llmal			lmmal			lcal			lmt5			lsh1			lsh2			lsh3			lsh4			ltoe			SBIKE			LBIKE			RBIKE			
		X1	Y1	Z1	X2	Y2	Z2	X3	Y3	Z3	X4	Y4	Z4	X5	Y5	Z5	X6	Y6	Z6	X7	Y7	Z7	X8	Y8	Z8	X9	Y9	Z9	X10	Y10	Z10	X11	Y11	Z11	X12	Y12	Z12	X13	Y13	Z13	X14	Y14	Z14	X15	Y15	Z15	X16	Y16	Z16	X17	Y17	Z17	X18	Y18	Z18	X19	Y19	Z19	X20	Y20	Z20	X21	Y21	Z21	X22	Y22	Z22	X23	Y23	Z23	X24	Y24	Z24	X25	Y25	Z25	X26	Y26	Z26	X27	Y27	Z27	X28	Y28	Z28	X29	Y29	Z29	X30	Y30	Z30	X31	Y31	Z31	X32	Y32	Z32	X33	Y33	Z33	X34	Y34	Z34	X35	Y35	Z35	X36	Y36	Z36	X37	Y37	Z37	X38	Y38	Z38	X39	Y39	Z39	X40	Y40	Z40	X41	Y41	Z41	X42	Y42	Z42	X43	Y43	Z43	X44	Y44	Z44	X45	Y45	Z45	X46	Y46	Z46	X47	Y47	Z47	X48	Y48	Z48	X49	Y49	Z49	X50	Y50	Z50	
250	1.2500	381.071018	1321.813341	-64.854729	384.657469	1330.980911	-386.667769	373.885787	1353.070905	-227.555517	401.063211	1215.329477	-221.382068	460.349579	1075.005515	11.902215	616.484801	911.133800	-41.965684	449.940217	1069.072381	-479.445615	610.937761	906.335718	-431.657046	-114.236528	1094.456778	-231.978874	56.720731	1089.327549	-376.366962	63.913404	1102.146704	-94.774152	76.906786	999.434223	-347.167536	59.694213	1036.525926	-92.340472	-72.153592	1151.628064	-179.451273	-58.834716	1150.309356	-287.450910	-61.303875	1027.471611	-30.807341	-52.792967	959.901322	-415.378030	37.073832	948.648743	7.587654	126.170361	952.254431	4.536807	201.530076	912.050648	11.694124	133.351793	986.847311	-9.537125	317.273149	874.701758	0.624305	321.915389	864.612411	-118.739553	256.120396	771.132252	11.713674	246.496196	685.748004	-12.185661	195.692053	618.114578	-29.594692	276.626468	680.731455	-35.385964	162.108860	523.205488	-60.805617	188.317572	548.857156	-136.070786	109.729603	503.285430	-107.758336	351.657436	480.991615	-105.058771	269.338725	455.388089	-43.145637	17.224995	847.834918	-429.050874	90.076614	800.657359	-420.615968	116.561209	825.424791	-412.206490	129.134122	720.984625	-412.081578	195.025962	632.933833	-393.748181	199.504497	627.249110	-275.102521	-10.193497	319.440913	-377.100911	9.185132	312.190068	-300.095249	-66.436203	317.139317	-331.443602	51.400529	187.508873	-400.264833	106.895028	545.024829	-417.679430	93.881040	458.971221	-405.079028	35.947454	391.348283	-396.932308	122.194531	449.689395	-381.237834	138.579556	169.532229	-345.819169	-218.233898	832.574976	-214.046047	-104.003084	80.401418	-418.291113	-104.038087	80.493211	-18.430139	
251	1.2550	381.998109	1321.575653	-64.504655	385.471032	1330.855162	-386.080605	374.462261	1352.684767	-227.091004	401.254472	1214.878346	-221.131438	459.656866	1074.357519	12.993658	616.265981	911.364484	-42.271192	449.584405	1068.797463	-479.608643	611.037212	906.454622	-432.010289	-114.296680	1094.404459	-232.081564	56.674515	1089.735683	-376.507962	63.652120	1102.536618	-94.411760	77.043737	999.807752	-347.248536	59.519443	1036.794258	-92.491560	-72.198818	1151.748052	-179.611836	-58.570796	1150.594145	-287.648630	-61.415313	1027.546739	-30.987331	-52.667496	959.996051	-415.495868	37.182547	948.975649	7.114203	126.292148	952.481908	3.963226	201.656612	912.372774	11.273333	133.578553	987.187309	-9.862433	317.376146	874.883197	0.144117	322.080964	864.691071	-119.317353	256.328544	771.380604	11.377809	246.646100	685.969458	-12.397190	195.805761	618.376132	-29.727210	276.724346	680.862287	-35.612250	162.115646	523.401479	-60.743880	188.416099	549.055104	-136.066918	109.712917	503.433784	-107.686823	351.607314	481.060814	-105.033700	269.298966	455.481045	-43.116194	17.271662	847.926357	-429.305128	90.090821	800.728358	-420.868201	116.578099	825.460320	-412.461101	129.118980	721.014294	-412.375913	194.951453	632.880616	-394.181070	199.525314	627.122376	-275.565209	-10.024351	319.333328	-377.222726	9.230504	312.179965	-300.125424	-66.207709	317.082032	-331.444892	51.535390	187.379212	-400.247166	106.793687	544.886622	-418.042505	93.842655	458.815334	-405.366534	35.998033	391.220182	-397.066912	122.242454	449.564954	-381.580747	138.698404	169.370516	-345.784921	-218.246077	832.577282	-214.030754	-103.977187	80.430549	-418.270868	-103.997813	80.458043	-18.406844	
252	1.2600	383.035827	1321.236933	-64.220007	386.286598	1330.746563	-385.355051	375.068843	1352.226754	-226.657834	401.449778	1214.334443	-220.920302	458.910547	1073.535626	14.141882	616.040249	911.503361	-42.580453	449.182205	1068.512129	-479.784725	611.121147	906.597488	-432.490092	-114.349032	1094.432086	-232.227082	56.662660	1090.115360	-376.574358	63.389731	1102.822265	-94.134077	77.216856	1000.239496	-347.274238	59.246535	1037.154002	-92.688359	-72.224670	1151.949370	-179.722381	-58.665767	1150.721775	-287.706128	-61.507297	1027.626423	-31.115001	-52.522770	960.109504	-415.637874	37.369233	949.293628	6.556240	126.462191	952.718277	3.324507	201.737449	912.563124	10.812940	133.746693	987.373039	-10.415910	317.465085	874.984578	-0.467921	322.252029	864.687945	-120.032816	256.592733	771.560369	10.948303	246.813280	686.180344	-12.690509	195.870715	618.510632	-29.852644	276.806966	680.897794	-35.874172	162.121724	523.466690	-60.696038	188.400602	549.099855	-136.043274	109.678284	503.438959	-107.611994	351.595354	481.088044	-105.011420	269.286023	455.506522	-43.068532	17.289833	848.040312	-429.897241	90.152535	800.802148	-421.145092	116.639195	825.495233	-412.717778	129.131242	721.051198	-412.738725	194.905751	632.844368	-394.712211	199.544470	627.051926	-276.024729	-9.876270	319.281983	-377.286952	9.307726	312.173602	-300.179791	-66.009958	317.147144	-331.478430	51.612082	187.314334	-400.206874	106.717605	544.756472	-418.445189	93.851696	458.669898	-405.639765	36.079344	391.048366	-397.196019	122.301614	449.511054	-381.888702	138.737740	169.220489	-345.746020	-218.239136	832.575902	-214.023012	-103.966691	80.413614	-418.262561	-104.010125	80.504238	-18.394850	
253	1.2650	384.161958	1320.816907	-64.016567	387.320867	1330.700687	-384.517888	375.629167	1351.715634	-226.226984	401.696027	1213.666581	-220.530061	458.185756	1072.735844	15.453258	615.802370	911.675829	-42.862515	448.734212	1068.223092	-479.934722	611.163270	906.766029	-433.075495	-114.449380	1094.511321	-232.420954	56.647186	1090.424454	-376.649579	62.769930	1103.052868	-93.814195	77.388012	1000.649751	-347.301709	58.984975	1037.463310	-92.891782	-72.328218	1152.106398	-179.865910	-58.833637	1150.915633	-287.742455	-61.575824	1027.754642	-31.258303	-52.383637	960.209726	-415.775278	37.562904	949.662178	5.890781	126.656458	952.889662	2.573017	201.867286	912.679820	10.219130	133.972626	987.610488	-11.080460	317.466444	875.011168	-1.166280	322.385649	864.603779	-120.822715	256.847848	771.657779	10.513176	246.916016	686.237799	-13.019397	195.890192	618.568209	-30.023929	276.862111	680.902054	-36.214161	162.140478	523.416229	-60.671498	188.370569	549.050525	-136.047756	109.672040	503.323653	-107.555876	351.609567	481.068773	-104.976504	269.326401	455.442390	-43.043560	17.350376	848.117550	-430.223695	90.207231	800.878682	-421.462685	116.701587	825.538075	-412.995747	129.186023	721.118111	-413.068860	194.879156	632.805188	-395.284016	199.647021	626.941493	-276.505563	-9.768487	319.358581	-377.366073	9.387808	312.214500	-300.247534	-65.862921	317.339984	-331.538027	51.607318	187.341729	-400.200245	106.691563	544.647314	-418.849108	93.885120	458.565864	-405.925992	36.174054	390.945690	-397.339062	122.375600	449.474127	-382.165575	138.684693	169.110737	-345.724972	-218.239995	832.581079	-214.006602	-103.970344	80.439244	-418.246793	-104.007124	80.495500	-18.397983	
